<?xml version="1.0" encoding="UTF-8" standalone="no"?>
<!DOCTYPE svg PUBLIC "-//W3C//DTD SVG 1.1//EN" "http://www.w3.org/Graphics/SVG/1.1/DTD/svg11.dtd">
<svg version="1.1" xmlns="http://www.w3.org/2000/svg" xmlns:xlink="http://www.w3.org/1999/xlink" preserveAspectRatio="xMidYMid meet" viewBox="0 0 128 128" width="128" height="128"><defs><path d="M48.69 33.27C50.11 31.06 52.17 29.23 54.9 27.77C57.63 26.32 60.8 25.59 64.43 25.59C67.79 25.59 70.78 26.19 73.36 27.41C75.94 28.63 77.93 30.27 79.33 32.37C80.73 34.46 81.44 36.73 81.44 39.17C81.44 41.09 81.04 42.78 80.23 44.23C79.43 45.68 78.48 46.95 77.37 47.99C76.25 49.04 74.29 50.81 71.42 53.32C70.64 54.02 70 54.64 69.52 55.17C69.05 55.71 68.69 56.2 68.46 56.63C68.22 57.08 68.05 57.5 67.91 57.95C67.79 58.4 67.6 59.17 67.34 60.28C66.89 62.63 65.52 63.83 63.19 63.83C61.99 63.83 60.97 63.45 60.14 62.68C59.31 61.91 58.9 60.75 58.9 59.24C58.9 57.33 59.21 55.69 59.81 54.28C60.42 52.89 61.2 51.65 62.22 50.6C63.22 49.55 64.57 48.29 66.28 46.84C67.77 45.58 68.83 44.62 69.5 43.97C70.16 43.33 70.73 42.61 71.18 41.82C71.63 41.03 71.87 40.17 71.87 39.23C71.87 37.41 71.18 35.9 69.78 34.63C68.41 33.39 66.61 32.75 64.43 32.75C61.87 32.75 59.99 33.37 58.79 34.63C57.58 35.9 56.56 37.75 55.71 40.19C54.92 42.76 53.41 44.04 51.2 44.04C49.9 44.04 48.81 43.59 47.91 42.69C46.98 41.84 46.56 40.85 46.56 39.81C46.56 37.65 47.27 35.47 48.69 33.27ZM59.85 75.76C58.79 74.86 58.27 73.6 58.27 72C58.27 70.56 58.79 69.37 59.81 68.38C60.82 67.4 62.08 66.93 63.57 66.93C65.04 66.93 66.28 67.42 67.27 68.38C68.27 69.37 68.76 70.56 68.76 72C68.76 73.58 68.24 74.84 67.2 75.74C66.16 76.63 64.95 77.1 63.57 77.1C62.15 77.1 60.92 76.66 59.85 75.76Z" id="doAHXIjo3"></path><path d="M93.42 77.83C93.21 77.59 92.9 77.46 92.57 77.46C91.85 77.46 86.17 77.46 85.46 77.46C82.97 77.46 79.93 76.12 79.51 72.36C79.44 71.8 78.89 71.39 78.28 71.44C77.66 71.5 77.21 71.99 77.26 72.55C77.52 74.83 78.58 76.69 80.36 77.93C81.76 78.92 83.63 79.49 85.46 79.49C86.12 79.49 91.39 79.49 92.04 79.49C97.54 85.82 97.35 97.08 97.16 100.35C96.32 100.35 92.08 100.35 84.46 100.35C84.46 94.02 84.46 90.5 84.46 89.8C84.46 89.24 83.96 88.77 83.32 88.77C82.71 88.77 82.19 89.22 82.19 89.8C82.19 90.5 82.19 94.02 82.19 100.35L45.81 100.35C45.81 94.02 45.81 90.5 45.81 89.8C45.81 89.24 45.31 88.77 44.67 88.77C44.06 88.77 43.53 89.22 43.53 89.8C43.53 90.5 43.53 94.02 43.53 100.35C35.91 100.35 31.68 100.35 30.83 100.35C30.64 97.06 30.45 85.82 35.95 79.49C36.61 79.49 41.88 79.49 42.54 79.49C44.36 79.49 46.21 78.94 47.63 77.93C49.41 76.69 50.48 74.83 50.74 72.55C50.81 71.99 50.34 71.48 49.72 71.44C49.1 71.37 48.53 71.8 48.49 72.36C48.06 76.12 45.03 77.46 42.54 77.46C41.83 77.46 36.14 77.46 35.43 77.46C35.1 77.46 34.79 77.59 34.58 77.83C31.42 81.2 29.48 86.23 28.77 92.75C28.25 97.55 28.65 101.34 28.65 101.49C28.7 102.02 29.2 102.41 29.77 102.41C36.61 102.41 91.36 102.41 98.21 102.41C98.8 102.41 99.27 102 99.32 101.49C99.37 101.32 99.75 97.53 99.22 92.75C98.54 86.23 96.57 81.2 93.42 77.83Z" id="bksa3haas"></path></defs><g><g><g><use xlink:href="#doAHXIjo3" opacity="1" fill="#000000" fill-opacity="1"></use><g><use xlink:href="#doAHXIjo3" opacity="1" fill-opacity="0" stroke="#000000" stroke-width="1" stroke-opacity="0"></use></g></g><g><use xlink:href="#bksa3haas" opacity="1" fill="#000000" fill-opacity="1"></use><g><use xlink:href="#bksa3haas" opacity="1" fill-opacity="0" stroke="#000000" stroke-width="1" stroke-opacity="0"></use></g></g></g></g></svg>